<?xml version="1.0" standalone="no"?>
<!DOCTYPE svg PUBLIC "-//W3C//DTD SVG 20010904//EN"
 "http://www.w3.org/TR/2001/REC-SVG-20010904/DTD/svg10.dtd">
<svg version="1.0" xmlns="http://www.w3.org/2000/svg"
 width="700.000000pt" height="700.000000pt" viewBox="0 0 700.000000 700.000000"
 preserveAspectRatio="xMidYMid meet">
<metadata>
Created by potrace 1.11, written by Peter Selinger 2001-2013
</metadata>
<g transform="translate(0.000000,700.000000) scale(0.100000,-0.100000)"
fill="#000000" stroke="none">
<path d="M3357 6883 c-1 0 -45 -4 -97 -7 -52 -4 -108 -9 -125 -11 -16 -2 -52
-7 -80 -10 -81 -9 -262 -44 -370 -71 -55 -14 -107 -27 -115 -29 -100 -22 -404
-141 -570 -224 -332 -166 -609 -367 -880 -640 -458 -459 -764 -1020 -904
-1656 -17 -77 -36 -193 -51 -310 -26 -196 -26 -639 0 -796 2 -13 6 -46 10 -74
3 -27 8 -57 10 -65 2 -8 6 -33 10 -55 26 -184 126 -523 215 -725 37 -86 138
-289 166 -337 75 -127 117 -193 192 -298 47 -66 88 -122 91 -125 3 -3 40 -45
80 -95 97 -117 281 -300 401 -399 52 -43 104 -86 115 -95 44 -36 216 -152 320
-216 336 -204 805 -377 1160 -429 47 -7 118 -18 136 -21 9 -2 52 -6 95 -10 43
-4 97 -9 119 -11 51 -5 385 -4 445 1 154 14 178 17 335 40 94 14 357 80 480
120 234 77 484 191 690 315 56 34 255 169 286 194 14 12 43 35 65 51 112 87
332 295 434 410 446 506 749 1188 815 1835 4 36 9 74 12 85 8 36 10 478 2 555
-15 147 -20 202 -24 218 -2 15 -5 35 -21 137 -17 109 -109 450 -144 530 -4 11
-24 62 -44 112 -124 319 -349 689 -583 957 -127 144 -347 347 -543 499 -32 25
-229 157 -234 157 -3 0 -31 16 -61 35 -240 154 -729 341 -1017 390 -18 3 -41
8 -51 11 -11 3 -29 7 -40 9 -12 1 -58 8 -102 14 -196 27 -274 33 -478 35 -82
0 -149 0 -150 -1z m403 -187 c58 -4 112 -9 120 -11 8 -2 35 -7 60 -10 463 -63
924 -237 1303 -490 l78 -53 -176 -128 c-97 -71 -189 -138 -205 -149 -15 -11
-80 -58 -145 -105 -64 -47 -131 -95 -148 -107 -18 -12 -105 -75 -194 -140 -89
-65 -340 -247 -557 -406 l-396 -287 -587 426 c-324 235 -733 533 -910 662
l-323 234 43 31 c120 88 365 219 563 302 189 80 565 190 639 186 2 0 18 4 35
9 17 5 61 12 98 16 37 3 75 8 84 10 10 1 59 6 110 10 51 3 94 7 95 8 5 4 321
-2 413 -8z m-2113 -823 c33 -104 102 -316 153 -473 50 -157 95 -294 100 -305
5 -11 22 -63 38 -115 40 -127 328 -1016 339 -1046 3 -10 -107 -94 -306 -235
-20 -14 -308 -224 -641 -465 -333 -242 -662 -482 -732 -532 -69 -51 -131 -92
-136 -92 -5 0 -12 10 -15 23 -3 12 -16 65 -30 117 -20 79 -32 131 -39 177 -1
5 -5 24 -9 43 -5 19 -11 62 -15 95 -3 33 -8 62 -10 65 -1 4 -6 51 -11 105 -15
188 -8 586 12 690 2 11 7 40 10 65 3 25 7 56 10 70 3 14 8 41 11 60 13 85 66
288 107 411 157 472 407 878 762 1235 118 119 317 292 335 294 3 0 33 -84 67
-187z m3817 155 c22 -18 46 -37 52 -43 6 -5 36 -30 65 -55 73 -61 252 -239
326 -325 379 -440 633 -979 728 -1550 34 -206 36 -230 39 -480 5 -292 -10
-454 -65 -715 -23 -113 -62 -251 -70 -253 -3 -1 -118 80 -255 179 -137 100
-541 394 -899 654 -357 259 -654 475 -658 479 -4 5 -3 19 2 32 5 13 33 96 61
184 49 155 95 296 240 740 79 243 267 822 337 1038 26 81 49 147 51 147 2 0
23 -15 46 -32z m-3422 -429 c46 -33 92 -67 103 -75 11 -8 274 -199 585 -425
311 -226 569 -414 573 -418 5 -5 -49 -50 -120 -102 -70 -51 -260 -189 -422
-307 l-295 -213 -27 83 c-15 46 -79 245 -143 443 -64 198 -127 392 -140 430
-13 39 -61 185 -106 325 -44 140 -85 265 -91 278 -10 25 -12 42 -4 42 3 0 42
-27 87 -61z m2960 -101 c-27 -84 -107 -328 -177 -543 -70 -214 -164 -504 -209
-642 l-82 -253 -25 17 c-30 21 -288 208 -384 278 -38 28 -152 111 -252 184
-101 73 -183 134 -183 136 0 1 51 39 113 83 146 106 655 475 687 499 255 188
555 402 558 398 2 -2 -18 -73 -46 -157z m-1358 -1063 c71 -52 139 -102 150
-110 125 -92 644 -468 655 -474 11 -6 11 -15 3 -42 -6 -19 -65 -200 -131 -404
-66 -203 -144 -443 -173 -532 l-52 -163 -41 0 c-77 -1 -991 -2 -1070 -1 l-81
1 -57 178 c-32 97 -87 267 -123 377 -36 110 -92 282 -125 383 -33 101 -57 187
-54 192 3 4 112 86 243 181 130 95 266 194 302 220 283 208 397 288 410 288 8
0 73 -42 144 -94z m-1174 -1095 c61 -190 132 -407 157 -483 25 -76 43 -141 40
-143 -6 -6 -1667 -8 -1672 -2 -3 2 225 170 505 373 281 204 520 378 533 387
125 96 313 226 318 220 4 -4 57 -162 119 -352z m2873 -140 c366 -266 664 -486
662 -488 -2 -3 -1113 -5 -1560 -3 l-120 1 61 188 c34 103 106 322 159 487 54
165 99 303 102 308 2 4 10 4 17 0 7 -5 312 -226 679 -493z m-2533 -907 c35
-109 89 -277 121 -373 31 -96 101 -310 154 -475 173 -535 344 -1058 353 -1084
8 -22 -249 -6 -463 29 -769 128 -1477 546 -1964 1159 -78 98 -197 269 -235
336 -9 17 -26 46 -38 65 -70 116 -238 489 -238 529 0 8 328 11 1123 11 l1123
0 64 -197z m1205 175 c-13 -44 -138 -432 -420 -1298 -35 -107 -69 -214 -76
-237 -7 -24 -15 -43 -18 -43 -3 0 -20 44 -37 98 -85 262 -258 793 -274 842
-43 129 -210 647 -210 653 0 4 234 7 521 7 l520 0 -6 -22z m2485 11 c0 -23
-92 -245 -149 -359 -188 -376 -420 -681 -736 -968 -118 -107 -355 -281 -475
-350 -19 -11 -69 -39 -110 -62 -205 -118 -561 -257 -780 -305 -107 -24 -173
-37 -256 -49 -155 -24 -162 -25 -284 -31 -63 -4 -117 -9 -120 -10 -3 -2 -11 0
-18 4 -8 5 1 44 32 141 24 74 97 297 161 495 136 419 220 678 315 970 38 116
93 283 122 373 l52 162 1123 0 c795 0 1123 -3 1123 -11z"/>
<path d="M3389 4245 c-132 -36 -257 -137 -318 -258 -51 -101 -78 -229 -79
-372 -1 -229 71 -420 233 -615 98 -117 219 -210 275 -210 63 0 220 130 316
260 62 83 119 194 156 300 31 92 33 100 33 255 0 183 -13 251 -74 374 -100
206 -338 323 -542 266z m-238 -766 c156 -50 259 -181 293 -371 4 -27 3 -27
-32 -22 -66 9 -160 47 -209 83 -90 68 -135 152 -149 274 l-5 47 34 0 c19 0 49
-5 68 -11z m794 -41 c-14 -120 -68 -215 -158 -277 -46 -31 -136 -65 -199 -75
-35 -5 -36 -5 -32 22 24 138 93 257 185 323 41 29 127 58 172 59 l38 0 -6 -52z"/>
</g>
</svg>
