<?xml version="1.0" encoding="utf-8"?>
<!-- Generator: Adobe Illustrator 12.0.0, SVG Export Plug-In . SVG Version: 6.00 Build 51448)  -->
<!DOCTYPE svg PUBLIC "-//W3C//DTD SVG 1.1//EN" "http://www.w3.org/Graphics/SVG/1.1/DTD/svg11.dtd" [
	<!ENTITY ns_svg "http://www.w3.org/2000/svg">
	<!ENTITY ns_xlink "http://www.w3.org/1999/xlink">
]>
<svg  version="1.1" xmlns="&ns_svg;" xmlns:xlink="&ns_xlink;" width="455.746" height="536.18" viewBox="0 0 455.746 536.18"
	 overflow="visible" enable-background="new 0 0 455.746 536.18" xml:space="preserve">
<g id="Layer_4">
	<g>
		<path fill="#666667" stroke="#000000" stroke-width="5" d="M234.836,301.888h66.501v19h-4.986c-3.258,0-5.49,0.293-6.695,0.879
			c-1.207,0.586-2.104,1.516-2.689,2.785s-0.879,3.695-0.879,7.275v42.686h-20.01l-5.174-9.777
			c-6.118,4.051-12.464,7.09-19.036,9.115c-6.574,2.023-13.406,3.037-20.498,3.037c-12.429,0-23.753-3.027-33.97-9.086
			s-18.303-14.527-24.256-25.406c-5.955-10.879-8.932-23.061-8.932-36.545c0-13.354,2.943-25.307,8.834-35.861
			c5.889-10.553,14.121-18.875,24.695-24.965s22.045-9.137,34.41-9.137c5.986,0,11.957,0.766,17.912,2.297
			c5.953,1.531,11.047,3.566,15.278,6.105l3.611-6.027h13.666l12.299,45.127l-17.961,5.861
			c-6.117-9.926-10.949-16.684-14.497-20.275c-3.547-3.592-7.613-6.4-12.201-8.426c-4.588-2.023-9.063-3.037-13.422-3.037
			c-6.184,0-11.958,1.793-17.326,5.377c-5.369,3.584-9.615,8.813-12.738,15.688c-3.125,6.875-4.686,15.197-4.686,24.971
			c0,10.752,1.707,20.07,5.125,27.953c3.418,7.885,7.893,13.732,13.426,17.545c5.533,3.813,11.621,5.717,18.261,5.717
			c4.686,0,9.127-0.943,13.326-2.83s7.08-4.002,8.643-6.346s2.344-5.5,2.344-9.471v-4.979c0-3.449-0.229-5.629-0.684-6.541
			c-0.719-1.301-1.68-2.244-2.885-2.83s-3.566-0.879-7.086-0.879h-7.721V301.888z"/>
		<path fill="#B3B2B2" stroke="#000000" stroke-width="2" d="M190.236,249.357c-9.73,5.604-17.41,13.365-22.824,23.068
			c-5.441,9.75-8.2,20.995-8.2,33.425c0,12.574,2.798,24.062,8.317,34.145c5.489,10.03,13.032,17.938,22.42,23.506
			c9.384,5.565,19.956,8.387,31.42,8.387c6.555,0,12.956-0.947,19.027-2.815c6.082-1.875,12.054-4.736,17.746-8.506l4.6-3.046
			c0,0,4.854,9.173,6.346,11.992c3.068,0,7.501,0,11.999,0c0-7.795,0-37.686,0-37.686c0-4.474,0.413-7.364,1.339-9.371
			c1.065-2.309,2.811-4.103,5.046-5.188c1.961-0.953,4.697-1.38,8.865-1.381c0-3.49,0-5.51,0-9c-7.857,0-48.644,0-56.501,0
			c0,3.49,0,5.51,0,9c1.242,0,2.721,0,2.721,0c4.446,0,7.307,0.427,9.272,1.382c2.144,1.043,3.851,2.694,5.074,4.909l0.051,0.092
			l0.047,0.094c0.859,1.722,1.21,4.264,1.21,8.773v4.979c0,4.956-1.071,9.075-3.184,12.244c-2.114,3.172-5.632,5.832-10.754,8.133
			c-4.828,2.17-10.001,3.27-15.375,3.27c-7.645,0-14.743-2.221-21.098-6.6c-6.29-4.334-11.396-10.953-15.176-19.674
			c-3.674-8.474-5.538-18.548-5.538-29.941c0-10.448,1.727-19.546,5.134-27.04c3.499-7.702,8.382-13.684,14.514-17.777
			c6.179-4.126,12.942-6.218,20.102-6.218c5.036,0,10.23,1.165,15.439,3.462c5.145,2.271,9.767,5.463,13.741,9.487
			c3.418,3.46,7.724,9.318,13.105,17.822c3.191-1.041,6.057-1.976,9.72-3.172c-1.836-6.735-8.537-31.322-10.043-36.85
			c-2.825,0-4.709,0-7.014,0c-1.037,1.731-4.727,7.889-4.727,7.889l-4.29-2.574c-3.798-2.279-8.491-4.146-13.951-5.551
			c-5.521-1.419-11.128-2.139-16.667-2.139C210.732,240.888,199.995,243.737,190.236,249.357z"/>
	</g>
</g>
<g id="Square">
	<path id="outline_2_" fill="#666667" stroke="#000000" stroke-width="3" stroke-linecap="round" d="M228.288,534.68
		l225.423-225.423c0,0-4.896-5.807-16.729-6.14c-11.833-0.333-26.833,12.001-36.333,12.167s-26.088-6.28-26.088-6.28
		L228.035,455.528h-0.324L81.186,309.004c0,0-16.588,6.446-26.088,6.28s-24.5-12.5-36.333-12.167s-16.729,6.14-16.729,6.14
		L227.458,534.68H228.288z"/>
	<path fill="#B3B2B2" stroke="#000000" stroke-width="3" stroke-linecap="round" d="M418.603,314.24
		c-6.376,3.059-12.397,5.947-17.867,6.043c-7.935,0.139-19.371-3.523-24.9-5.482c-4.385,4.385-145.729,145.728-145.729,145.728
		h-4.467c0,0-141.344-141.343-145.728-145.728c-5.529,1.959-16.966,5.621-24.901,5.482c-5.469-0.096-11.491-2.984-17.866-6.043
		c-6.426-3.083-13.07-6.271-18.239-6.125c-4.029,0.113-6.965,0.957-9.065,1.876c8.103,8.103,212.081,212.08,218.033,218.032
		c5.953-5.952,209.93-209.93,218.033-218.032c-2.1-0.919-5.036-1.763-9.065-1.876C431.672,307.97,425.027,311.157,418.603,314.24z"
		/>
	<g id="left_swirls_and_ticks">
		<g id="Ticks">
			
				<line fill="none" stroke="#000000" stroke-width="3" stroke-linecap="round" x1="45.952" y1="344.928" x2="53.931" y2="336.949"/>
			
				<line fill="none" stroke="#000000" stroke-width="3" stroke-linecap="round" x1="147.952" y1="446.928" x2="155.931" y2="438.949"/>
			
				<line fill="none" stroke="#000000" stroke-width="3" stroke-linecap="round" x1="164.952" y1="463.928" x2="178.013" y2="450.867"/>
			
				<line fill="none" stroke="#000000" stroke-width="3" stroke-linecap="round" x1="198.952" y1="497.928" x2="212.013" y2="484.867"/>
			
				<line fill="none" stroke="#000000" stroke-width="3" stroke-linecap="round" x1="181.952" y1="480.928" x2="189.931" y2="472.949"/>
			
				<line fill="none" stroke="#000000" stroke-width="3" stroke-linecap="round" x1="215.952" y1="514.928" x2="223.931" y2="506.949"/>
			
				<line fill="none" stroke="#000000" stroke-width="3" stroke-linecap="round" x1="62.952" y1="361.928" x2="76.013" y2="348.867"/>
			
				<line fill="none" stroke="#000000" stroke-width="3" stroke-linecap="round" x1="28.952" y1="327.928" x2="36.931" y2="319.949"/>
			
				<line fill="none" stroke="#000000" stroke-width="3" stroke-linecap="round" x1="79.952" y1="378.928" x2="87.931" y2="370.949"/>
			
				<line fill="none" stroke="#000000" stroke-width="3" stroke-linecap="round" x1="79.952" y1="378.928" x2="87.931" y2="370.949"/>
			
				<line fill="none" stroke="#000000" stroke-width="3" stroke-linecap="round" x1="96.952" y1="395.928" x2="110.013" y2="382.867"/>
			
				<line fill="none" stroke="#000000" stroke-width="3" stroke-linecap="round" x1="130.952" y1="429.928" x2="144.013" y2="416.867"/>
			
				<line fill="none" stroke="#000000" stroke-width="3" stroke-linecap="round" x1="113.952" y1="412.928" x2="121.931" y2="404.949"/>
		</g>
	</g>
	<g id="left_swirls_and_ticks_1_">
		<g id="Ticks_1_">
			
				<line fill="none" stroke="#000000" stroke-width="3" stroke-linecap="round" x1="409.931" y1="344.928" x2="401.952" y2="336.949"/>
			
				<line fill="none" stroke="#000000" stroke-width="3" stroke-linecap="round" x1="307.931" y1="446.928" x2="299.952" y2="438.949"/>
			
				<line fill="none" stroke="#000000" stroke-width="3" stroke-linecap="round" x1="290.931" y1="463.928" x2="277.87" y2="450.867"/>
			
				<line fill="none" stroke="#000000" stroke-width="3" stroke-linecap="round" x1="256.931" y1="497.928" x2="243.87" y2="484.867"/>
			
				<line fill="none" stroke="#000000" stroke-width="3" stroke-linecap="round" x1="273.931" y1="480.928" x2="265.952" y2="472.949"/>
			
				<line fill="none" stroke="#000000" stroke-width="3" stroke-linecap="round" x1="239.931" y1="514.928" x2="231.952" y2="506.949"/>
			
				<line fill="none" stroke="#000000" stroke-width="3" stroke-linecap="round" x1="392.931" y1="361.928" x2="379.87" y2="348.867"/>
			
				<line fill="none" stroke="#000000" stroke-width="3" stroke-linecap="round" x1="426.931" y1="327.928" x2="418.952" y2="319.949"/>
			
				<line fill="none" stroke="#000000" stroke-width="3" stroke-linecap="round" x1="375.931" y1="378.928" x2="367.952" y2="370.949"/>
			
				<line fill="none" stroke="#000000" stroke-width="3" stroke-linecap="round" x1="375.931" y1="378.928" x2="367.952" y2="370.949"/>
			
				<line fill="none" stroke="#000000" stroke-width="3" stroke-linecap="round" x1="358.931" y1="395.928" x2="345.87" y2="382.867"/>
			
				<line fill="none" stroke="#000000" stroke-width="3" stroke-linecap="round" x1="324.931" y1="429.928" x2="311.87" y2="416.867"/>
			
				<line fill="none" stroke="#000000" stroke-width="3" stroke-linecap="round" x1="341.931" y1="412.928" x2="333.952" y2="404.949"/>
		</g>
	</g>
</g>
<g id="compasses">
	<g id="left_compass">
		<path fill="#B3B2B2" stroke="#000000" stroke-width="4" stroke-linecap="round" stroke-linejoin="round" d="M10.974,520.441
			L196.629,39.19l52.201,20.106l-57.479,148.455c0,0-16.087,5.699-27.42,13.032s-22,18.667-22,18.667L10.974,520.441z"/>
		<path fill="#8C8C8C" stroke="#000000" stroke-width="3" stroke-linecap="round" stroke-linejoin="round" d="M130.55,235.165
			l70.566-182.51l35.496,13.672l-52.432,132.457c0,0-18,5-28,11.5S130.55,235.165,130.55,235.165z"/>
	</g>
	<g id="right_compass">
		<path fill="#B3B2B2" stroke="#000000" stroke-width="4" stroke-linecap="round" stroke-linejoin="round" d="M444.83,520.441
			L259.176,39.19l-52.201,20.106l57.479,148.455c0,0,16.087,5.699,27.42,13.032s22,18.667,22,18.667L444.83,520.441z"/>
		<path fill="#8C8C8C" stroke="#000000" stroke-width="3" stroke-linecap="round" stroke-linejoin="round" d="M325.255,235.165
			l-70.566-182.51l-35.496,13.672l52.432,132.457c0,0,18,5,28,11.5S325.255,235.165,325.255,235.165z"/>
	</g>
</g>
<g id="knob">
	<circle id="outer_circle" fill="#8C8C8C" stroke="#000000" stroke-width="4" cx="227.931" cy="39.117" r="37.117"/>
	
		<circle id="outer_circle_2_" fill="#B3B2B2" stroke="#000000" stroke-width="3" stroke-linecap="round" stroke-linejoin="round" cx="227.931" cy="39.117" r="27.838"/>
	
		<circle id="outer_circle_3_" fill="#8C8C8C" stroke="#000000" stroke-width="3" stroke-linecap="round" stroke-linejoin="round" cx="227.931" cy="39.117" r="13.919"/>
</g>
</svg>
