<?xml version="1.0" encoding="UTF-8" standalone="no"?>
<!-- Created with Inkscape (http://www.inkscape.org/) -->
<svg
   xmlns:dc="http://purl.org/dc/elements/1.1/"
   xmlns:cc="http://web.resource.org/cc/"
   xmlns:rdf="http://www.w3.org/1999/02/22-rdf-syntax-ns#"
   xmlns:svg="http://www.w3.org/2000/svg"
   xmlns="http://www.w3.org/2000/svg"
   xmlns:sodipodi="http://sodipodi.sourceforge.net/DTD/sodipodi-0.dtd"
   xmlns:inkscape="http://www.inkscape.org/namespaces/inkscape"
   height="852.15002"
   width="807.60999"
   id="svg2"
   sodipodi:version="0.32"
   inkscape:version="0.44"
   sodipodi:docbase="D:\dokumenty\kot\do wiki"
   sodipodi:docname="Square compasses.svg"
   version="1.0">
  <defs
     id="defs4" />
  <sodipodi:namedview
     id="base"
     pagecolor="#ffffff"
     bordercolor="#666666"
     borderopacity="1.0"
     inkscape:pageopacity="0.0"
     inkscape:pageshadow="2"
     inkscape:cx="336.31059"
     inkscape:cy="314.15821"
     inkscape:zoom="0.84581584"
     inkscape:document-units="px"
     inkscape:current-layer="layer1"
     inkscape:window-width="1024"
     inkscape:window-height="682"
     inkscape:window-x="-4"
     inkscape:window-y="-4"
     width="807.61px"
     height="852.15px" />
  <metadata
     id="metadata7">
    <rdf:RDF>
      <cc:Work
         rdf:about="">
        <dc:format>image/svg+xml</dc:format>
        <dc:type
           rdf:resource="http://purl.org/dc/dcmitype/StillImage" />
      </cc:Work>
    </rdf:RDF>
  </metadata>
  <g
     inkscape:groupmode="layer"
     inkscape:label="Warstwa 1"
     id="layer1"
     transform="translate(-2.860819,-1.78125)">
    <path
       style="fill:black;fill-opacity:1;fill-rule:evenodd;stroke:black;stroke-width:9;stroke-linecap:round;stroke-linejoin:round;stroke-miterlimit:4;stroke-dasharray:none;stroke-opacity:1"
       d="M 505.83914,424.04435 L 505.83914,339.49408 C 505.83914,339.49408 505.89034,335.34946 502.52344,335.34946 C 495.06314,335.34946 493.74734,335.29196 493.40534,335.34946 C 490.00394,335.92123 488.43174,337.83623 488.43174,341.98085 C 488.43174,341.98085 482.37804,349.17276 474.32494,344.50879 C 466.38584,339.91084 433.18469,329.22246 410.91201,328.232 C 398.325,327.65996 286.52334,334.7918 275.93644,459.19687 C 275.79793,459.47389 267.99869,591.69017 406.03541,604.04501 C 406.03541,604.04501 431.02166,606.76091 466.87154,590.46553 C 502.72134,574.17014 509.23954,570.91107 509.23954,570.91107 L 509.23954,517.1363 C 509.23954,517.1363 515.75764,502.47046 530.96664,499.21138 L 530.96664,485.63189 L 444.60114,483.45918 L 444.60114,499.75456 C 444.60114,499.75456 464.69874,504.1 464.69874,514.96358 C 464.69874,525.82717 473.38964,549.18389 444.60114,571.45425 C 415.81263,593.7246 335.42208,579.60194 335.42208,514.4204 C 335.42208,449.23887 319.12669,354.72565 415.26946,354.72565 C 415.26946,354.72565 485.76294,351.47321 485.88274,419.90718 C 485.88474,421.01011 487.60894,425.67652 492.46804,425.62063 C 497.20114,425.56619 505.98044,425.88216 505.83914,424.04435 z "
       id="path1948"
       sodipodi:nodetypes="ccssczsccsccccccssscssc" />
    <path
       style="fill:white;fill-opacity:1;fill-rule:evenodd;stroke:black;stroke-width:7;stroke-linecap:round;stroke-linejoin:miter;stroke-miterlimit:4;stroke-dasharray:none;stroke-opacity:1"
       d="M 73.456742,384.54988 L 407.15511,718.24824 L 739.87488,385.52847 L 803.97237,449.62595 L 406.66581,846.93251 L 9.3592562,449.62595 L 73.456742,384.54988 z "
       id="path5512" />
    <path
       style="fill:none;fill-opacity:0.75;fill-rule:evenodd;stroke:black;stroke-width:7;stroke-linecap:round;stroke-linejoin:miter;stroke-miterlimit:4;stroke-dasharray:none;stroke-opacity:1"
       d="M 42.05007,481.81749 L 61.621822,462.24574"
       id="path5514" />
    <path
       style="fill:none;fill-opacity:0.75;fill-rule:evenodd;stroke:black;stroke-width:7;stroke-linecap:round;stroke-linejoin:miter;stroke-miterlimit:4;stroke-dasharray:none;stroke-opacity:1"
       d="M 75.413917,514.70203 L 106.23943,483.87652"
       id="path5516" />
    <path
       id="path6403"
       d="M 107.70731,547.97401 L 127.27906,528.40226"
       style="fill:none;fill-opacity:0.75;fill-rule:evenodd;stroke:black;stroke-width:7;stroke-linecap:round;stroke-linejoin:miter;stroke-miterlimit:4;stroke-dasharray:none;stroke-opacity:1" />
    <path
       style="fill:none;fill-opacity:0.75;fill-rule:evenodd;stroke:black;stroke-width:7;stroke-linecap:round;stroke-linejoin:miter;stroke-miterlimit:4;stroke-dasharray:none;stroke-opacity:1"
       d="M 175.22985,615.49655 L 194.8016,595.9248"
       id="path6405" />
    <path
       id="path6407"
       d="M 240.40778,680.47077 L 259.97953,660.89902"
       style="fill:none;fill-opacity:0.75;fill-rule:evenodd;stroke:black;stroke-width:7;stroke-linecap:round;stroke-linejoin:miter;stroke-miterlimit:4;stroke-dasharray:none;stroke-opacity:1" />
    <path
       style="fill:none;fill-opacity:0.75;fill-rule:evenodd;stroke:black;stroke-width:7;stroke-linecap:round;stroke-linejoin:miter;stroke-miterlimit:4;stroke-dasharray:none;stroke-opacity:1"
       d="M 307.33917,747.60587 L 326.91092,728.03412"
       id="path6409" />
    <path
       id="path6411"
       d="M 374.3824,814.24169 L 393.95415,794.66994"
       style="fill:none;fill-opacity:0.75;fill-rule:evenodd;stroke:black;stroke-width:7;stroke-linecap:round;stroke-linejoin:miter;stroke-miterlimit:4;stroke-dasharray:none;stroke-opacity:1" />
    <path
       style="fill:none;fill-opacity:0.75;fill-rule:evenodd;stroke:black;stroke-width:7;stroke-linecap:round;stroke-linejoin:miter;stroke-miterlimit:4;stroke-dasharray:none;stroke-opacity:1"
       d="M 438.56177,814.92471 L 418.99002,795.35296"
       id="path6413" />
    <path
       id="path6415"
       d="M 505.40129,747.99331 L 485.82954,728.42156"
       style="fill:none;fill-opacity:0.75;fill-rule:evenodd;stroke:black;stroke-width:7;stroke-linecap:round;stroke-linejoin:miter;stroke-miterlimit:4;stroke-dasharray:none;stroke-opacity:1" />
    <path
       style="fill:none;fill-opacity:0.75;fill-rule:evenodd;stroke:black;stroke-width:7;stroke-linecap:round;stroke-linejoin:miter;stroke-miterlimit:4;stroke-dasharray:none;stroke-opacity:1"
       d="M 572.53639,681.06192 L 552.96464,661.49017"
       id="path6417" />
    <path
       id="path6419"
       d="M 638.10176,614.51797 L 618.53001,594.94622"
       style="fill:none;fill-opacity:0.75;fill-rule:evenodd;stroke:black;stroke-width:7;stroke-linecap:round;stroke-linejoin:miter;stroke-miterlimit:4;stroke-dasharray:none;stroke-opacity:1" />
    <path
       style="fill:none;fill-opacity:0.75;fill-rule:evenodd;stroke:black;stroke-width:7;stroke-linecap:round;stroke-linejoin:miter;stroke-miterlimit:4;stroke-dasharray:none;stroke-opacity:1"
       d="M 705.6243,547.97402 L 686.05255,528.40227"
       id="path6421" />
    <path
       id="path6423"
       d="M 771.87268,481.8175 L 752.30093,462.24575"
       style="fill:none;fill-opacity:0.75;fill-rule:evenodd;stroke:black;stroke-width:7;stroke-linecap:round;stroke-linejoin:miter;stroke-miterlimit:4;stroke-dasharray:none;stroke-opacity:1" />
    <path
       id="path6425"
       d="M 207.52324,647.78994 L 238.34875,616.96443"
       style="fill:none;fill-opacity:0.75;fill-rule:evenodd;stroke:black;stroke-width:7;stroke-linecap:round;stroke-linejoin:miter;stroke-miterlimit:4;stroke-dasharray:none;stroke-opacity:1" />
    <path
       style="fill:none;fill-opacity:0.75;fill-rule:evenodd;stroke:black;stroke-width:7;stroke-linecap:round;stroke-linejoin:miter;stroke-miterlimit:4;stroke-dasharray:none;stroke-opacity:1"
       d="M 274.06719,714.33389 L 304.8927,683.50838"
       id="path6427" />
    <path
       id="path6429"
       d="M 340.61114,780.87784 L 371.43665,750.05233"
       style="fill:none;fill-opacity:0.75;fill-rule:evenodd;stroke:black;stroke-width:7;stroke-linecap:round;stroke-linejoin:miter;stroke-miterlimit:4;stroke-dasharray:none;stroke-opacity:1" />
    <path
       style="fill:none;fill-opacity:0.75;fill-rule:evenodd;stroke:black;stroke-width:7;stroke-linecap:round;stroke-linejoin:miter;stroke-miterlimit:4;stroke-dasharray:none;stroke-opacity:1"
       d="M 471.25258,780.87784 L 440.42707,750.05233"
       id="path6431" />
    <path
       id="path6433"
       d="M 538.77512,713.3553 L 507.94961,682.52979"
       style="fill:none;fill-opacity:0.75;fill-rule:evenodd;stroke:black;stroke-width:7;stroke-linecap:round;stroke-linejoin:miter;stroke-miterlimit:4;stroke-dasharray:none;stroke-opacity:1" />
    <path
       style="fill:none;fill-opacity:0.75;fill-rule:evenodd;stroke:black;stroke-width:7;stroke-linecap:round;stroke-linejoin:miter;stroke-miterlimit:4;stroke-dasharray:none;stroke-opacity:1"
       d="M 603.3619,646.81135 L 572.53639,615.98584"
       id="path6435" />
    <path
       sodipodi:nodetypes="cccccccc"
       id="path8220"
       d="M 459.89174,89.016431 L 732.81699,656.86704 C 732.81699,656.86704 712.36733,627.2396 690.83841,623.32525 L 558.48358,352.21823 C 558.48358,352.21823 526.81966,280.68122 488.11931,284.19943 L 396.26727,125.10703 L 434.33025,113.31248 L 459.89174,89.016431 z "
       style="fill:white;fill-opacity:1;fill-rule:evenodd;stroke:black;stroke-width:7;stroke-linecap:butt;stroke-linejoin:miter;stroke-miterlimit:4;stroke-dasharray:none;stroke-opacity:1" />
    <path
       style="fill:white;fill-opacity:1;fill-rule:evenodd;stroke:black;stroke-width:7;stroke-linecap:butt;stroke-linejoin:miter;stroke-miterlimit:4;stroke-dasharray:none;stroke-opacity:1"
       d="M 357.24714,89.016431 L 84.321883,656.86704 C 84.321883,656.86704 104.77155,627.2396 126.30047,623.32525 L 258.6553,352.21823 C 258.6553,352.21823 290.31922,280.68122 329.01957,284.19943 L 420.87161,125.10703 L 378.12056,113.31248 L 357.24714,89.016431 z "
       id="path7333"
       sodipodi:nodetypes="cccccccc" />
    <path
       id="path6437"
       d="M 738.40698,514.70203 L 707.58147,483.87652"
       style="fill:none;fill-opacity:0.75;fill-rule:evenodd;stroke:black;stroke-width:7;stroke-linecap:round;stroke-linejoin:miter;stroke-miterlimit:4;stroke-dasharray:none;stroke-opacity:1" />
    <path
       style="fill:white;fill-opacity:1;stroke:black;stroke-width:7;stroke-linecap:round;stroke-linejoin:round;stroke-miterlimit:4;stroke-dasharray:none;stroke-dashoffset:0;stroke-opacity:1"
       d="M 406.18594,8.780017 C 371.6144,8.780017 343.56094,36.833475 343.56094,71.405017 C 343.56094,105.97656 371.6144,134.03002 406.18594,134.03002 C 440.75748,134.03002 468.81094,105.97656 468.81094,71.405017 C 468.81094,36.833475 440.75748,8.780017 406.18594,8.780017 z M 406.18594,30.311267 C 428.87351,30.311267 447.27969,48.717443 447.27969,71.405017 C 447.27969,94.092591 428.87351,112.49877 406.18594,112.49877 C 383.49837,112.49877 365.06094,94.092591 365.06094,71.405017 C 365.06094,48.717443 383.49837,30.311267 406.18594,30.311267 z "
       id="path7326" />
  </g>
</svg>
