<?xml version="1.0" encoding="utf-8"?><!DOCTYPE svg PUBLIC "-//W3C//DTD SVG 1.1//EN" "http://www.w3.org/Graphics/SVG/1.1/DTD/svg11.dtd"><svg version="1.1" xmlns="http://www.w3.org/2000/svg" xmlns:xlink="http://www.w3.org/1999/xlink" x="0px" y="0px" viewBox="0 0 100 100" enable-background="new 0 0 100 100" xml:space="preserve"><path d="M77.656,43.75c-2.447,0-5.025,1.224-7.734,3.672L62.5,54.141V13.203c0-2.552-0.416-4.557-1.25-6.016
	c-0.885-1.458-1.719-2.604-2.5-3.438c-0.834-0.781-1.979-1.615-3.438-2.5C53.854,0.417,52.084,0,50,0
	c-2.083,0-3.854,0.417-5.312,1.25c-1.458,0.885-2.604,1.719-3.438,2.5c-0.781,0.833-1.615,1.979-2.5,3.438
	c-0.833,1.458-1.25,3.463-1.25,6.016v41.562l-3.984-4.141c-1.615-1.719-3.047-3.073-4.297-4.062
	c-1.198-0.99-2.344-1.719-3.438-2.188c-1.042-0.417-2.344-0.625-3.906-0.625s-2.865,0.208-3.906,0.625s-2.083,1.042-3.125,1.875
	c-1.094,0.885-2.083,1.875-2.969,2.969c-0.833,1.042-1.458,2.084-1.875,3.125s-0.625,2.396-0.625,4.062v0.781
	c0,2.188,1.146,4.453,3.438,6.797l6.719,6.953c6.719,6.928,13.49,13.646,20.312,20.156L50,100.781l10.156-9.688
	c6.822-6.51,13.594-13.229,20.312-20.156l6.328-6.484c2.553-2.656,3.828-5.209,3.828-7.656S90,52.188,88.75,50.312
	c-1.303-1.823-2.865-3.385-4.688-4.688C82.188,44.375,80.053,43.75,77.656,43.75"></path></svg>