<?xml version="1.0" standalone="no"?>
<!DOCTYPE svg PUBLIC "-//W3C//DTD SVG 20010904//EN"
 "http://www.w3.org/TR/2001/REC-SVG-20010904/DTD/svg10.dtd">
<svg version="1.0" xmlns="http://www.w3.org/2000/svg"
 width="1280.000000pt" height="640.000000pt" viewBox="0 0 1280.000000 640.000000"
 preserveAspectRatio="xMidYMid meet">
<metadata>
Created by potrace 1.15, written by Peter Selinger 2001-2017
</metadata>
<g transform="translate(0.000000,640.000000) scale(0.100000,-0.100000)"
fill="#000000" stroke="none">
<path d="M7958 4004 c-5 -4 -286 -11 -625 -15 -663 -8 -751 -14 -796 -57 -13
-12 -30 -22 -39 -22 -9 0 -34 -21 -55 -47 l-40 -47 -29 55 c-26 49 -34 56 -84
72 -150 51 -172 52 -715 51 -324 -1 -711 -9 -1060 -23 -922 -36 -1123 -41
-1572 -41 l-432 0 -7 -36 c-9 -47 2 -175 21 -250 54 -205 225 -414 417 -507
154 -74 324 -122 535 -151 162 -23 534 -37 868 -34 160 2 446 2 637 0 285 -3
349 -6 358 -17 7 -8 10 -21 7 -29 -5 -13 -128 -15 -934 -12 -1024 4 -1042 4
-1203 67 -44 17 -118 36 -164 43 -57 9 -101 22 -142 44 -32 18 -87 46 -122 62
-42 20 -65 37 -72 55 -7 19 -17 25 -38 25 -64 0 -191 186 -241 355 -38 128
-48 283 -25 368 5 16 -6 17 -138 17 -79 0 -298 -9 -488 -20 -427 -24 -511 -25
-551 -4 -28 14 -40 14 -131 -1 -87 -15 -152 -16 -521 -11 -516 9 -516 9 -545
1 -94 -23 161 -119 428 -160 182 -28 525 -30 955 -6 528 30 885 41 910 27 17
-9 10 -12 -45 -22 -86 -17 -385 -41 -585 -49 -314 -12 -532 -26 -685 -46 -85
-11 -209 -27 -275 -35 -142 -18 -391 -20 -490 -4 -38 6 -96 22 -127 34 -56 23
-58 23 -58 4 0 -11 4 -27 10 -37 13 -26 177 -142 220 -157 58 -20 192 -34 324
-34 65 0 147 -5 181 -11 50 -10 83 -9 176 5 134 19 448 52 899 95 179 17 350
36 381 41 74 13 112 13 127 -2 36 -36 -11 -58 -141 -64 -55 -3 -132 -13 -171
-24 -39 -11 -147 -26 -241 -35 -93 -9 -287 -33 -430 -55 -439 -65 -437 -65
-695 -64 -181 0 -264 4 -317 16 -84 17 -85 16 -57 -64 31 -94 113 -157 244
-189 37 -9 115 -13 235 -13 280 2 461 24 820 104 121 27 299 64 395 83 97 20
210 49 252 66 100 40 147 47 182 29 27 -14 24 -15 -101 -56 -227 -73 -605
-181 -724 -206 -64 -14 -156 -39 -205 -57 -120 -42 -183 -59 -221 -59 -18 0
-76 -16 -130 -36 -90 -33 -110 -36 -235 -41 -132 -6 -137 -6 -127 -25 24 -44
86 -101 140 -129 45 -22 56 -32 52 -47 -4 -16 3 -20 45 -25 122 -14 376 58
812 233 350 140 665 252 772 274 40 8 74 14 75 12 4 -4 -210 -109 -392 -193
-298 -138 -707 -303 -753 -303 -15 0 -49 -11 -77 -23 -31 -15 -79 -26 -126
-30 -42 -4 -89 -11 -103 -17 -39 -14 -30 -41 19 -58 22 -8 69 -26 105 -40 121
-50 307 -32 516 49 55 21 127 55 160 75 32 19 94 50 138 67 43 17 165 80 270
140 255 145 340 185 406 193 l55 7 -19 -21 c-21 -24 -75 -59 -301 -194 -202
-121 -208 -124 -289 -142 -83 -20 -109 -33 -177 -91 -30 -26 -84 -62 -122 -81
-66 -34 -107 -65 -107 -83 0 -5 34 -14 75 -20 161 -24 299 18 525 160 187 117
251 152 328 179 34 13 77 37 95 54 37 35 197 139 197 128 0 -30 -62 -98 -151
-167 -69 -54 -118 -101 -149 -145 -26 -36 -72 -84 -103 -108 -53 -40 -77 -75
-62 -90 4 -4 50 -7 103 -7 144 1 193 23 301 137 47 48 90 88 97 88 8 0 37 34
65 76 28 42 67 93 85 114 32 35 89 68 99 58 3 -3 -16 -41 -43 -86 -95 -165
-147 -237 -192 -269 -60 -42 -90 -70 -90 -83 0 -11 207 -14 283 -4 l47 7 64
111 c84 144 158 249 194 274 29 22 82 39 82 28 0 -15 -35 -74 -85 -146 -29
-42 -64 -99 -79 -128 -17 -34 -40 -61 -65 -77 -38 -23 -60 -59 -46 -73 4 -4
62 -6 128 -4 110 2 124 5 138 23 8 12 64 98 124 191 111 175 143 208 198 208
15 0 27 -3 27 -7 0 -26 -138 -242 -220 -344 l-52 -64 69 -6 c156 -15 189 -12
225 20 18 16 49 55 68 88 19 32 51 81 71 108 21 28 53 78 73 112 20 35 45 67
56 73 18 10 80 14 80 6 0 -3 -17 -33 -38 -68 -22 -35 -57 -94 -80 -133 -22
-38 -66 -96 -97 -127 -31 -32 -55 -63 -53 -70 7 -20 67 -28 168 -22 l95 7 76
121 c42 66 88 144 104 173 34 64 81 110 124 123 32 9 33 9 26 -18 -3 -15 -27
-63 -53 -107 -25 -44 -59 -106 -74 -137 -16 -33 -44 -70 -68 -89 -22 -18 -40
-41 -40 -52 0 -18 5 -19 108 -13 158 10 202 16 202 30 0 17 113 236 157 304
21 33 46 58 66 67 36 15 87 9 87 -10 0 -30 -104 -220 -143 -263 -62 -66 -74
-92 -52 -108 34 -25 253 -31 276 -7 4 5 40 78 79 163 49 108 81 165 105 188
19 17 39 32 44 32 16 0 23 -78 11 -117 -7 -21 -27 -63 -44 -93 -39 -67 -46
-84 -56 -132 l-7 -38 116 0 c64 0 122 4 129 9 8 5 26 33 41 62 28 57 75 91
111 82 25 -7 25 -23 -1 -73 -12 -22 -19 -46 -16 -54 7 -17 89 -36 153 -36 87
0 115 29 185 192 46 109 73 150 111 173 23 13 28 14 28 2 0 -28 -39 -125 -94
-236 -32 -62 -55 -116 -51 -119 3 -3 62 -6 131 -6 122 -1 126 0 145 24 39 50
92 170 97 220 10 107 47 79 137 -103 l60 -122 96 -3 c53 -1 108 2 124 8 26 10
27 13 21 51 -4 22 -20 67 -36 99 -17 33 -30 72 -30 86 0 26 1 27 20 9 11 -10
33 -54 50 -99 17 -44 39 -99 49 -122 l19 -41 116 -7 c113 -7 196 3 196 24 0
24 -16 43 -51 61 -61 31 -66 89 -8 89 48 0 65 -15 105 -90 l36 -70 95 0 c90 0
163 17 163 38 0 5 -23 42 -51 82 -69 101 -89 143 -89 187 0 57 12 70 44 50 45
-30 80 -84 136 -213 l55 -127 127 -1 c79 -1 131 3 138 10 14 14 -10 70 -88
206 -71 125 -76 137 -57 144 42 17 136 -87 214 -236 l66 -125 114 -3 c62 -2
117 0 122 5 4 4 3 30 -3 56 -9 44 -34 86 -126 217 -17 25 -34 57 -38 73 -5 24
-3 27 19 27 47 0 119 -79 182 -199 31 -61 71 -124 88 -141 29 -29 38 -32 112
-36 44 -2 100 -1 124 2 l43 7 -5 43 c-5 52 -34 108 -93 185 -49 64 -81 129
-64 129 45 0 108 -65 186 -194 91 -152 144 -184 278 -171 61 5 76 10 76 23 0
36 -51 122 -127 217 -44 55 -85 110 -92 123 -11 21 -11 22 16 16 38 -9 144
-120 192 -202 85 -144 164 -193 287 -177 50 6 54 8 54 33 0 37 -46 124 -112
213 -56 74 -88 129 -88 149 0 17 51 11 86 -10 36 -23 93 -98 198 -257 37 -57
74 -107 84 -112 9 -4 44 -12 77 -15 33 -4 68 -10 79 -13 17 -5 18 0 14 54 -3
50 -12 73 -50 134 -26 41 -50 87 -53 102 -4 16 -19 34 -35 42 -37 19 -70 66
-70 100 l0 26 33 -22 c17 -12 109 -99 202 -194 118 -120 184 -179 216 -194
105 -49 262 -52 347 -8 57 30 62 43 21 52 -18 4 -64 23 -103 41 -39 19 -78 34
-88 34 -43 0 -400 318 -369 328 25 8 323 -151 531 -284 118 -76 261 -162 318
-192 l103 -54 92 17 c99 18 191 56 207 84 8 15 -3 22 -86 50 -52 17 -241 103
-422 190 -180 87 -358 171 -397 186 -64 26 -130 63 -123 70 7 6 120 -16 204
-41 128 -36 305 -108 664 -267 392 -173 468 -199 575 -200 71 -1 87 3 148 33
37 18 82 49 99 69 l31 35 -94 14 c-105 14 -200 46 -559 184 -135 52 -383 146
-552 209 -249 92 -303 115 -285 122 43 17 188 0 307 -36 250 -75 618 -209 733
-268 83 -42 134 -62 170 -66 32 -3 84 -21 135 -46 79 -39 90 -42 187 -45 85
-4 117 0 174 17 67 20 145 69 183 115 26 32 63 104 56 111 -3 3 -94 10 -201
15 -144 6 -202 13 -219 24 -13 8 -50 22 -83 31 -33 10 -72 24 -88 32 -20 10
-32 11 -46 3 -15 -7 -40 -2 -108 24 -102 40 -180 60 -574 150 -157 36 -306 66
-330 66 -55 0 -119 17 -119 32 0 7 37 8 123 4 220 -13 374 -39 852 -146 380
-85 492 -101 720 -106 l200 -5 76 85 c42 47 81 98 86 113 l10 28 -236 1 c-262
0 -266 1 -710 93 -353 74 -581 106 -847 120 -103 6 -159 13 -180 24 l-29 15
28 11 c42 16 98 13 242 -12 95 -17 142 -21 175 -15 32 6 95 1 220 -17 289 -41
716 -93 870 -106 223 -18 482 4 545 45 13 8 40 46 60 83 21 37 45 76 53 86 8
9 13 19 10 22 -3 3 -70 -2 -149 -11 -143 -16 -145 -16 -379 11 -129 15 -293
33 -365 41 -80 9 -346 18 -690 25 -315 6 -564 14 -569 20 -17 16 7 29 85 45
65 14 122 14 494 4 231 -6 494 -15 585 -20 221 -12 528 -12 673 0 254 21 419
89 442 182 7 27 6 28 -31 27 -22 0 -225 2 -453 4 -310 4 -420 3 -435 -6 -34
-19 -1783 -11 -2126 9 -232 15 -330 15 -785 5 -286 -6 -556 -14 -599 -17 -55
-4 -96 -1 -135 9 -63 18 -262 33 -273 21z m12 -64 c256 -16 384 -42 428 -87
15 -15 48 -42 73 -59 28 -19 51 -44 57 -63 15 -42 7 -41 -103 14 -150 74 -359
102 -685 91 -107 -4 -359 -11 -560 -16 -313 -8 -376 -12 -445 -29 -96 -24
-185 -27 -225 -6 -37 19 -38 35 -4 69 33 32 72 43 204 57 57 5 109 13 114 17
6 4 182 9 391 12 209 3 427 7 485 8 58 1 179 -3 270 -8z m-1773 -25 c58 -17
106 -53 128 -95 13 -26 13 -28 -11 -39 -43 -19 -77 -13 -165 32 l-84 42 -520
-3 c-286 -1 -583 -7 -660 -13 -274 -20 -471 -73 -602 -162 -29 -20 -53 -34
-53 -31 0 3 9 22 19 42 50 98 176 177 341 214 89 20 132 22 700 28 719 8 837
7 907 -15z m2770 13 c4 -7 10 -49 14 -93 5 -71 2 -93 -26 -192 -43 -148 -76
-206 -153 -265 -132 -101 -315 -140 -742 -158 -129 -5 -294 -13 -366 -16 -160
-8 -234 5 -234 41 0 41 21 47 127 40 68 -5 140 -2 233 9 79 10 199 16 290 15
109 -2 177 3 230 14 350 74 329 66 412 165 77 93 114 197 125 349 l6 92 31 4
c17 2 34 5 38 5 4 1 10 -4 15 -10z m1302 -14 c11 -11 -31 -75 -61 -91 -51 -27
-238 -28 -558 -3 -234 19 -467 26 -585 17 -29 -2 -30 -1 -33 47 l-3 49 618 -7
c339 -4 619 -9 622 -12z m177 -5 c14 -12 16 -25 9 -99 -4 -47 -7 -107 -6 -134
3 -111 -68 -263 -173 -374 -116 -122 -364 -269 -479 -283 -32 -4 -66 -14 -75
-22 -31 -28 -440 -74 -857 -97 -172 -9 -377 -15 -1194 -36 l-264 -7 7 24 c4
13 12 66 18 117 7 52 16 92 22 92 28 -1 95 -41 115 -69 l22 -31 -65 2 c-72 2
-91 -6 -63 -27 31 -22 117 -26 242 -10 90 11 226 15 550 15 368 0 438 3 485
17 41 12 106 17 260 19 138 1 226 7 270 17 36 9 123 23 194 32 210 27 328 75
556 223 124 80 125 81 177 169 75 127 105 224 110 353 2 58 6 111 9 119 6 18
106 10 130 -10z m-1622 -11 c12 -46 6 -146 -13 -199 -10 -30 -35 -88 -55 -129
-33 -69 -40 -77 -92 -103 -99 -50 -239 -87 -404 -108 -47 -5 -239 -13 -427
-16 -275 -4 -346 -3 -359 8 -8 7 -27 36 -41 63 -14 28 -41 65 -59 83 l-34 31
62 9 c55 7 64 11 72 35 14 41 -13 72 -107 118 -86 43 -164 58 -230 46 -51 -9
-116 -58 -167 -123 l-44 -57 1 -91 c1 -71 9 -116 38 -215 62 -211 65 -223 72
-302 6 -77 6 -78 -18 -80 -106 -7 -199 24 -199 66 0 12 18 50 39 84 22 34 45
80 52 104 17 64 13 193 -9 268 -31 107 -105 241 -170 312 -30 33 -31 33 103
53 112 18 1086 41 1230 30 95 -7 261 -39 314 -61 21 -8 59 -37 84 -64 66 -70
112 -68 122 4 10 62 -12 103 -94 176 -39 35 -71 68 -71 72 0 4 89 8 199 8 198
0 199 0 205 -22z m-4485 -36 c-57 -37 -126 -112 -150 -165 -13 -30 -19 -65
-19 -119 0 -43 2 -78 5 -78 22 0 71 40 125 100 118 134 195 153 780 196 299
22 396 25 615 21 145 -3 284 -11 315 -17 59 -13 130 -45 130 -59 0 -17 -42
-60 -85 -88 -25 -15 -48 -37 -51 -48 -3 -11 -22 -43 -41 -71 -31 -46 -35 -62
-50 -179 -19 -150 -12 -231 30 -334 29 -73 30 -71 -48 -113 -28 -15 -59 -22
-104 -22 l-65 -1 -10 33 c-14 50 8 131 55 195 21 31 39 63 39 71 0 9 16 65 35
125 55 170 44 258 -43 332 -108 93 -284 92 -402 -1 -22 -17 -40 -39 -40 -48 0
-27 31 -52 67 -52 18 0 33 -3 33 -8 0 -4 -23 -38 -50 -76 -28 -38 -53 -80 -57
-94 l-6 -25 -221 7 c-463 15 -820 35 -881 51 -182 48 -313 263 -265 437 l10
36 78 7 c42 3 84 8 92 9 8 2 62 4 119 5 l105 1 -45 -28z m-403 -8 c-11 -42 -9
-147 4 -194 15 -55 58 -141 98 -197 36 -49 118 -92 237 -125 76 -21 101 -22
490 -24 385 -1 535 -10 557 -32 14 -14 -2 -42 -30 -49 -15 -3 -110 -1 -212 6
-102 6 -250 11 -330 11 -198 0 -417 17 -525 41 -174 37 -298 118 -354 230 -40
79 -55 157 -48 247 7 90 23 112 80 112 37 0 39 -1 33 -26z m-169 3 c4 -5 -4
-19 -19 -32 -26 -22 -36 -24 -155 -24 -71 0 -202 -7 -293 -16 -91 -9 -219 -15
-285 -13 -66 1 -172 -2 -236 -6 -129 -10 -170 -2 -213 41 -14 14 -26 35 -26
45 0 20 10 20 609 16 335 -1 613 -7 618 -11z m5798 -78 c487 -24 617 -26 652
-8 18 9 35 14 38 11 9 -9 5 -90 -6 -119 -17 -47 -58 -81 -111 -94 -56 -13
-117 -9 -303 21 -66 11 -232 31 -370 45 -137 14 -286 30 -330 35 -44 6 -85 10
-92 10 -20 0 -15 58 7 80 39 39 72 41 515 19z m-5833 -21 c45 -13 45 -26 -3
-50 -25 -14 -58 -18 -130 -18 -102 0 -664 -58 -824 -86 -54 -9 -111 -13 -131
-9 -48 8 -84 46 -84 85 l0 30 69 0 c56 0 241 13 751 53 112 9 316 6 352 -5z
m2870 -50 c174 -86 262 -246 262 -473 -1 -104 -2 -113 -34 -175 -62 -122 -198
-226 -329 -250 -114 -21 -231 -5 -315 45 -49 29 -126 93 -126 105 0 5 16 14
35 20 39 13 44 24 16 40 -16 8 -26 5 -50 -16 l-31 -26 -26 59 c-54 120 -66
271 -33 388 10 35 13 37 24 22 13 -19 40 -23 50 -7 3 5 -6 21 -21 35 l-27 25
38 55 c41 60 108 125 128 125 7 0 18 -9 25 -20 10 -17 16 -18 33 -10 16 9 19
17 13 44 -5 32 -4 34 33 44 21 6 88 10 150 8 105 -2 116 -4 185 -38z m683 -40
c22 -11 65 -34 95 -49 53 -27 53 -28 27 -35 -16 -3 -51 -4 -80 0 -160 20 -181
19 -209 -4 -59 -46 -26 -80 80 -80 68 0 82 -3 129 -32 29 -18 53 -39 53 -48 0
-9 7 -25 15 -38 14 -19 14 -24 0 -46 -15 -23 -15 -27 6 -67 19 -39 21 -53 15
-135 -16 -224 -100 -410 -209 -463 -59 -28 -161 -28 -246 0 -66 23 -189 99
-231 143 l-24 27 32 31 32 32 27 -22 c50 -40 106 -62 162 -62 l53 0 -6 -35
c-9 -45 13 -47 54 -7 69 70 64 168 -21 428 -52 162 -61 200 -63 269 -1 72 2
84 24 111 73 90 202 128 285 82z m-1570 -29 c54 -27 120 -97 128 -135 8 -42
-77 -292 -125 -365 -59 -91 -78 -137 -78 -192 0 -58 26 -113 75 -155 53 -47
111 -43 79 6 -8 13 -14 25 -12 26 2 1 25 8 53 14 27 7 75 29 106 48 31 18 59
34 62 34 3 0 24 -16 47 -35 l42 -35 -67 -65 c-85 -82 -189 -135 -280 -143 -85
-6 -188 24 -232 70 -69 72 -112 210 -120 384 -6 133 5 223 38 302 27 65 39 70
237 98 30 5 33 8 30 37 l-3 32 -73 3 c-52 2 -75 7 -78 17 -5 12 -11 10 -34 -6
-23 -17 -31 -19 -49 -10 -17 10 -19 16 -11 31 10 19 51 51 80 63 31 14 138 -1
185 -24z m-1954 11 c46 -25 6 -64 -76 -74 -27 -4 -91 -16 -141 -26 -50 -11
-242 -47 -425 -80 -342 -63 -385 -66 -434 -34 -20 13 -62 92 -53 99 3 2 243
35 478 66 80 10 233 25 340 34 107 9 196 18 199 20 9 9 92 5 112 -5z m5540
-41 c57 -5 158 -19 224 -30 66 -11 165 -27 220 -35 55 -9 176 -19 269 -23
l168 -6 -50 -75 c-70 -103 -104 -124 -206 -128 -94 -4 -236 22 -336 61 -36 14
-94 28 -130 32 -36 4 -142 25 -237 46 -95 21 -185 39 -200 39 -50 0 -57 11
-42 68 12 48 15 51 48 55 75 8 173 7 272 -4z m-2011 -59 c19 -6 9 -8 -35 -8
-33 0 -69 3 -80 8 -26 11 80 11 115 0z m-3489 -27 c16 -10 29 -20 29 -23 0
-21 -659 -236 -800 -260 -117 -21 -212 5 -256 69 l-24 35 23 12 c38 20 194 52
387 79 216 31 300 48 354 70 89 37 238 47 287 18z m129 -159 c0 -7 -17 -18
-37 -24 -21 -7 -137 -61 -258 -121 -247 -123 -315 -144 -422 -136 -76 6 -178
44 -208 77 -16 18 -15 19 27 30 97 25 164 45 388 117 129 41 285 88 345 103
l110 29 28 -32 c15 -17 27 -37 27 -43z m5255 41 c224 -31 264 -40 345 -75 59
-25 131 -39 308 -58 25 -2 41 -9 39 -15 -6 -20 -99 -77 -150 -92 -70 -21 -196
-19 -292 5 -44 10 -179 53 -300 95 -120 41 -226 75 -235 75 -32 0 -43 16 -30
41 20 38 66 60 110 53 14 -2 106 -15 205 -29z m-5143 -105 c34 -16 71 -30 81
-30 20 0 22 -15 5 -30 -7 -6 -49 -32 -93 -57 -254 -146 -317 -168 -473 -161
-112 6 -145 13 -140 32 5 16 294 159 397 196 48 17 101 42 117 55 16 14 32 24
36 25 3 0 35 -13 70 -30z m4933 -23 c55 -19 154 -56 220 -81 66 -26 156 -54
200 -62 44 -9 81 -17 83 -19 9 -8 -117 -36 -193 -43 -164 -16 -268 8 -483 110
-74 35 -112 58 -110 67 2 8 23 27 48 43 57 35 98 33 235 -15z m-4623 -63 c27
-3 50 -9 53 -14 8 -13 -52 -88 -96 -120 -85 -61 -216 -93 -364 -88 l-89 3 36
35 c20 19 83 63 140 97 57 33 112 71 123 83 20 22 35 22 197 4z m4395 -60 c65
-32 136 -63 158 -69 56 -15 58 -40 3 -41 -24 0 -84 -4 -134 -9 -111 -10 -138
-2 -256 72 -49 30 -100 58 -115 63 l-28 8 45 21 c38 19 58 21 127 18 76 -4 91
-9 200 -63z m-4006 29 c-5 -10 -50 -57 -100 -105 l-90 -88 -84 0 c-96 0 -147
8 -147 23 0 5 37 49 83 98 l82 87 133 1 c124 1 132 0 123 -16z m252 11 c11
-11 -82 -122 -127 -153 -53 -37 -115 -53 -186 -49 l-55 3 105 102 105 103 76
0 c42 0 78 -3 82 -6z m216 0 c17 -4 31 -13 31 -20 0 -8 -31 -48 -70 -90 -38
-41 -70 -80 -70 -86 0 -11 -163 -8 -175 4 -9 8 27 69 69 115 33 39 76 63 126
74 49 10 54 10 89 3z m131 -119 c0 -83 -2 -85 -97 -85 -44 0 -53 3 -53 18 0
21 21 53 72 109 21 24 38 51 38 60 1 15 4 14 20 -6 16 -18 20 -38 20 -96z
m2955 90 c72 -19 147 -59 194 -104 l36 -33 -25 -10 c-37 -15 -187 -2 -255 22
-49 17 -209 93 -224 106 -8 7 8 16 41 24 56 13 171 11 233 -5z m-325 -27 c30
-14 84 -47 120 -74 l65 -48 -40 -7 c-22 -3 -59 -10 -82 -14 -38 -7 -44 -5 -85
33 -23 22 -68 52 -99 67 -31 14 -67 38 -80 52 l-24 25 85 -4 c64 -3 99 -11
140 -30z m-280 -2 c61 -31 190 -111 190 -117 0 -4 -26 -11 -58 -17 -97 -17
-169 5 -294 90 -86 58 -78 69 47 65 51 -2 93 -10 115 -21z"/>
<path d="M6312 3710 c-11 -17 -9 -20 13 -26 32 -8 43 1 29 23 -15 25 -28 25
-42 3z"/>
<path d="M6417 3698 c-4 -12 -5 -24 -2 -26 8 -8 45 19 45 33 0 24 -37 18 -43
-7z"/>
<path d="M6534 3689 c-3 -6 -2 -15 4 -21 12 -12 43 -7 43 7 1 14 -39 26 -47
14z"/>
<path d="M6648 3639 c-26 -15 -23 -41 5 -37 14 2 23 11 25 26 4 24 -4 27 -30
11z"/>
<path d="M6296 3625 c-9 -24 1 -35 30 -35 21 0 25 4 22 23 -4 27 -42 36 -52
12z"/>
<path d="M6117 3623 c-4 -3 -7 -15 -7 -25 0 -23 48 -25 57 -2 9 23 -32 45 -50
27z"/>
<path d="M6410 3615 c0 -22 37 -38 44 -19 10 27 7 34 -19 34 -15 0 -25 -6 -25
-15z"/>
<path d="M6504 3595 c-7 -18 3 -35 22 -35 20 0 30 30 13 41 -20 12 -29 11 -35
-6z"/>
<path d="M6195 3560 c-7 -12 34 -30 52 -23 6 3 14 11 17 19 4 10 -3 14 -29 14
-18 0 -37 -5 -40 -10z"/>
<path d="M6447 3554 c-17 -18 -6 -35 21 -32 16 2 27 9 27 18 0 16 -36 26 -48
14z"/>
<path d="M6567 3553 c-11 -10 -8 -20 8 -27 21 -8 45 3 45 20 0 14 -41 20 -53
7z"/>
<path d="M6710 3540 c0 -11 7 -23 15 -27 19 -7 20 -5 29 25 6 19 4 22 -18 22
-19 0 -26 -5 -26 -20z"/>
<path d="M6055 3540 c-8 -14 3 -30 21 -30 8 0 14 9 14 20 0 21 -24 28 -35 10z"/>
<path d="M6140 3502 c0 -19 26 -49 35 -40 3 2 6 15 7 29 2 18 -2 25 -19 27
-17 3 -23 -2 -23 -16z"/>
<path d="M6267 3503 c-9 -19 0 -38 18 -38 13 0 21 8 23 23 3 16 -2 22 -17 22
-11 0 -22 -3 -24 -7z"/>
<path d="M6470 3474 c0 -24 3 -26 32 -20 17 3 34 8 36 11 10 10 -22 35 -44 35
-19 0 -24 -5 -24 -26z"/>
<path d="M6394 3475 c-8 -21 2 -45 20 -45 19 0 29 29 15 46 -15 18 -28 18 -35
-1z"/>
<path d="M6620 3471 c0 -16 6 -21 26 -21 33 0 30 33 -4 38 -17 3 -22 -2 -22
-17z"/>
<path d="M6087 3431 c-3 -13 1 -21 14 -24 16 -4 29 10 29 34 0 18 -38 9 -43
-10z"/>
<path d="M6740 3440 c-11 -7 -12 -12 -3 -21 15 -15 47 -7 51 14 4 19 -23 23
-48 7z"/>
<path d="M6191 3431 c-19 -12 -6 -41 17 -41 11 0 25 7 33 16 10 13 10 17 -2
25 -18 11 -30 11 -48 0z"/>
<path d="M6302 3428 c-19 -19 -14 -30 10 -26 13 2 24 11 26 21 4 20 -18 23
-36 5z"/>
<path d="M6527 3404 c-13 -13 7 -34 32 -34 33 0 42 7 34 26 -5 14 -54 20 -66
8z"/>
<path d="M6436 3391 c-3 -5 1 -14 9 -21 12 -10 18 -10 30 0 8 7 15 16 15 21 0
12 -47 12 -54 0z"/>
<path d="M5990 3375 c-10 -11 -10 -19 -2 -27 15 -15 44 -2 40 19 -4 23 -22 27
-38 8z"/>
<path d="M6662 3363 c2 -12 12 -18 28 -18 16 0 26 6 28 18 3 13 -3 17 -28 17
-25 0 -31 -4 -28 -17z"/>
<path d="M6342 3358 c3 -7 17 -14 32 -16 20 -3 27 0 24 10 -3 7 -17 14 -32 16
-20 3 -27 0 -24 -10z"/>
<path d="M6080 3345 c-10 -13 -11 -18 -1 -28 10 -9 15 -8 26 7 23 31 -1 50
-25 21z"/>
<path d="M6187 3353 c-12 -12 -7 -43 7 -43 18 0 39 27 31 40 -7 11 -28 13 -38
3z"/>
<path d="M6265 3331 c-9 -16 3 -31 26 -31 14 0 19 6 17 17 -4 20 -33 29 -43
14z"/>
<path d="M6766 3325 c-11 -29 -7 -35 24 -35 18 0 33 6 37 15 7 19 5 22 -28 30
-19 5 -28 2 -33 -10z"/>
<path d="M6457 3308 c-8 -28 -4 -32 22 -23 27 8 28 45 2 45 -11 0 -21 -9 -24
-22z"/>
<path d="M6565 3310 c-3 -6 -4 -18 0 -29 4 -13 12 -17 30 -13 30 5 33 27 6 42
-24 13 -28 13 -36 0z"/>
<path d="M6676 3291 c-11 -18 6 -42 28 -39 29 4 29 42 -1 46 -11 2 -24 -1 -27
-7z"/>
<path d="M5982 3273 c2 -10 12 -18 23 -18 11 0 21 8 23 18 3 13 -3 17 -23 17
-20 0 -26 -4 -23 -17z"/>
<path d="M6370 3281 c0 -5 -3 -16 -6 -25 -8 -21 39 -22 56 -1 10 12 8 16 -15
25 -32 12 -35 12 -35 1z"/>
<path d="M6092 3268 c-7 -7 -12 -18 -12 -25 0 -22 26 -14 38 12 9 20 9 25 -1
25 -7 0 -18 -5 -25 -12z"/>
<path d="M6285 3229 c-8 -25 7 -44 30 -36 22 9 31 37 14 48 -23 14 -37 10 -44
-12z"/>
<path d="M6467 3238 c-24 -13 -21 -35 5 -41 26 -7 24 -8 32 19 8 25 -12 37
-37 22z"/>
<path d="M6773 3234 c-3 -8 -2 -19 3 -24 13 -12 54 7 54 25 0 20 -49 20 -57
-1z"/>
<path d="M6174 3225 c-4 -9 -2 -21 4 -27 15 -15 54 1 50 20 -4 23 -46 28 -54
7z"/>
<path d="M6561 3221 c-21 -14 -5 -43 21 -39 29 4 39 48 11 48 -10 0 -24 -4
-32 -9z"/>
<path d="M6006 3204 c-11 -28 -7 -34 24 -34 33 0 38 11 14 34 -20 20 -30 20
-38 0z"/>
<path d="M6660 3181 c0 -22 28 -35 54 -25 23 9 20 31 -6 38 -38 10 -48 7 -48
-13z"/>
<path d="M6095 3180 c-9 -15 14 -40 36 -40 24 0 33 18 19 35 -14 17 -46 20
-55 5z"/>
<path d="M6200 3170 c-11 -7 -12 -12 -3 -21 15 -15 48 -7 48 11 0 18 -24 24
-45 10z"/>
<path d="M6344 3165 c-9 -23 4 -47 23 -43 11 2 19 14 21 31 3 22 -1 27 -18 27
-11 0 -23 -7 -26 -15z"/>
<path d="M6436 3154 c-10 -26 -7 -34 14 -34 15 0 20 7 20 25 0 28 -24 34 -34
9z"/>
<path d="M6517 3133 c-15 -14 -6 -33 18 -39 32 -8 60 13 44 32 -12 15 -51 19
-62 7z"/>
<path d="M6767 3133 c-14 -13 -6 -33 12 -33 16 0 31 18 31 36 0 7 -36 5 -43
-3z"/>
<path d="M6277 3113 c-15 -14 -7 -43 13 -43 20 0 44 32 33 44 -8 8 -38 8 -46
-1z"/>
<path d="M6622 3103 c4 -21 36 -29 51 -14 9 9 8 14 -3 21 -25 16 -52 12 -48
-7z"/>
<path d="M6141 3091 c-15 -28 -14 -31 13 -31 33 0 40 14 17 34 -18 17 -20 17
-30 -3z"/>
<path d="M6361 3061 c-17 -11 -7 -41 12 -41 8 0 20 7 28 16 10 13 10 17 -2 25
-17 11 -21 11 -38 0z"/>
<path d="M6463 3063 c-18 -7 -16 -32 2 -39 18 -7 45 12 45 32 0 14 -23 17 -47
7z"/>
<path d="M6710 3040 c0 -23 5 -30 19 -30 19 0 31 18 31 46 0 8 -10 14 -25 14
-21 0 -25 -5 -25 -30z"/>
<path d="M6207 3034 c-11 -12 13 -43 28 -38 22 9 19 44 -3 44 -10 0 -22 -3
-25 -6z"/>
<path d="M6572 3008 c2 -15 11 -24 26 -26 18 -3 22 1 22 22 0 21 -5 26 -26 26
-21 0 -25 -4 -22 -22z"/>
<path d="M6280 2969 c0 -16 5 -20 27 -17 17 2 29 10 31 21 3 13 -3 17 -27 17
-25 0 -31 -4 -31 -21z"/>
<path d="M6492 2968 c-18 -18 -14 -38 8 -38 15 0 20 7 20 25 0 27 -9 32 -28
13z"/>
<path d="M6640 2960 c0 -25 25 -36 45 -20 25 21 18 40 -15 40 -23 0 -30 -4
-30 -20z"/>
<path d="M6371 2961 c-18 -11 -5 -31 20 -31 12 0 19 7 19 20 0 21 -16 26 -39
11z"/>
<path d="M6140 2935 c0 -27 18 -33 38 -13 20 20 14 38 -13 38 -20 0 -25 -5
-25 -25z"/>
<path d="M6237 2903 c-14 -13 -7 -33 11 -33 19 0 42 18 42 32 0 10 -44 11 -53
1z"/>
<path d="M6563 2903 c-16 -6 -17 -29 -3 -38 13 -8 40 13 40 31 0 14 -14 17
-37 7z"/>
<path d="M6452 2873 c2 -10 13 -19 26 -21 17 -3 22 2 22 17 0 16 -6 21 -26 21
-19 0 -25 -5 -22 -17z"/>
<path d="M6352 2868 c-20 -20 -14 -38 14 -38 20 0 25 4 22 22 -4 26 -19 33
-36 16z"/>
</g>
</svg>
